<svg width="270" height="214" viewBox="0 0 270 214" fill="none" xmlns="http://www.w3.org/2000/svg">
<g clip-path="url(#clip0_71_8)">
<path d="M199.4 198.5C145.6 198.5 92.3 198.5 39 198.5C34.3 198.5 29.7 198.6 25 198.1C10.2 196.7 0.200026 185.5 0.200026 170.7C0.200026 134.9 0.600026 99.1 2.56649e-05 63.3C-0.299974 47.5 11.8 34.6 28.3 34.4C37 34.3 45.6 34.2 54.3 34.5C58.2 34.6 60.7 33.6 62.7 30C65.7 24.5 69.4 19.3 72.8 14C78.5 4.79999 87 0.39999 97.4 0.19999C113.9 -0.10001 130.4 -1.02669e-05 146.9 0.19999C157.4 0.39999 165.8 4.69999 171.6 13.8C175.1 19.3 178.8 24.6 182.1 30.2C183.9 33.3 186 34.5 189.7 34.4C198.7 34.1 207.7 34.5 216.7 34.3C233.2 33.9 247.3 45.9 246.7 64.1C245.9 88.1 246.5 112 246.5 136C246.5 137.5 246.5 138.9 246.5 140.5C211.1 130.6 182.3 165.1 199.4 198.5ZM180.5 116.1C180.4 84.3 154.7 58.8 122.9 59C91.5 59.1 66 84.8 66.1 116.4C66.2 148.4 91.6 173.8 123.4 173.8C155.1 173.8 180.6 148 180.5 116.1Z" fill="#2C3638"/>
<path d="M198.1 177.8C198.1 157.8 213.5 142.7 233.6 142.7C253.4 142.8 269 158.3 269.1 178.1C269.1 197.5 252.9 213.7 233.5 213.7C213.7 213.7 198.1 197.9 198.1 177.8ZM237.2 166C237.2 163.8 237.3 161.7 237.2 159.5C237 157 235.8 155.2 233.1 155.6C230.9 155.9 229.7 157.3 229.9 159.8C230.2 163.3 229.9 166.8 230.1 170.3C230.3 173.5 229.2 174.9 225.9 174.7C222.6 174.5 219.3 174.7 215.9 174.7C213.6 174.7 211.3 174.9 211.2 177.9C211.1 180.9 213.1 181.8 215.8 181.9C220.3 182.1 225.9 180 228.8 182.7C232 185.7 229.6 191.5 230 196.1C230.2 198.6 230.7 200.6 233.4 200.5C235.8 200.4 237.2 198.8 237.1 196.1C237 192.6 237.3 189.1 237 185.6C236.8 182.5 238 181.5 241 181.7C244.6 181.9 248.3 181.9 252 181.6C254.1 181.5 256 180.3 255.9 177.9C255.8 175.5 254.1 174.5 251.8 174.6C249.8 174.6 247.8 174.6 245.8 174.6C237.2 174.6 237.2 174.6 237.2 166Z" fill="#07BEDB"/>
<path d="M84.3 116.2C84.4 94.7 101.9 77.2 123.4 77.2C144.9 77.2 162.4 94.8 162.3 116.3C162.3 138.1 144.5 155.8 122.9 155.6C101.4 155.3 84.2 137.8 84.3 116.2Z" fill="#2C3638"/>
</g>
<defs>
<clipPath id="clip0_71_8">
<rect width="269.1" height="213.7" fill="white"/>
</clipPath>
</defs>
</svg>
